<?xml version="1.0" encoding="UTF-8"?>
<svg version="1.1" xmlns="http://www.w3.org/2000/svg" width="2000" height="2000">
<path d="M0 0 C1.28970703 -0.00773438 2.57941406 -0.01546875 3.90820312 -0.0234375 C11.793817 -0.00764258 19.35459142 0.65620144 27.15356445 1.79589844 C31.60416889 2.38875987 35.9535356 2.55300866 40.4375 2.5 C41.28715332 2.49613281 42.13680664 2.49226562 43.01220703 2.48828125 C48.23991695 2.41794017 53.26291675 1.98028393 58.4375 1.25 C81.41422298 -1.96006654 109.03842438 -2.57952042 128.9375 11 C136.71246646 17.32320924 141.70015092 27.48145199 143.5625 37.25 C144.7546692 54.42896279 140.11138691 69.50044286 129.9453125 83.47265625 C122.78702565 91.28979039 112.09145609 96.1170539 102.8046875 100.92578125 C100.68662038 102.17669545 99.19733601 103.42817294 97.5625 105.25 C97.8925 106.24 98.2225 107.23 98.5625 108.25 C103.21075977 107.80016841 107.6767622 107.23055437 112.23828125 106.23046875 C131.53497874 102.31105058 150.97156259 105.73499302 167.5625 116.25 C170.43011936 118.49546753 173.05539774 120.80924837 175.64453125 123.3671875 C178.21452706 125.89007544 180.07300978 127.15010404 183.625 127.875 C188.70586785 127.06851304 190.86311035 124.83189325 194.69921875 121.54296875 C209.88082436 109.3852573 230.92146938 101.22772181 250.5625 103.25 C265.34363897 105.46459573 278.49524233 110.97115051 290.3125 120.125 C293.98936782 122.52910588 295.27914428 122.86344542 299.5625 122.25 C302.18749209 120.12640616 302.18749209 120.12640616 304.5625 117.25 C312.66501168 108.47593901 323.25030614 102.9493405 334.5625 99.25 C335.23925781 99.02570313 335.91601562 98.80140625 336.61328125 98.5703125 C353.09155874 94.039562 370.12955353 98.09602444 384.76953125 106.03125 C394.69361976 111.68943951 401.51332458 119.17562906 408.25 128.2109375 C409.3946875 129.71527344 409.3946875 129.71527344 410.5625 131.25 C410.995625 131.88164063 411.42875 132.51328125 411.875 133.1640625 C414.93337312 135.13218224 418.12938571 134.89222584 421.5625 134.25 C424.55851794 132.9246026 427.173178 131.15403132 429.875 129.3125 C458.93317356 110.62684547 490.86268406 103.0875492 525.15551758 103.00976562 C527.72705776 103.00008635 530.29778785 102.96899298 532.86914062 102.9375 C551.99547748 102.81447033 570.09136688 105.95990748 585.203125 118.625 C588.8885792 122.34924845 591.06759616 126.91463549 593.25 131.625 C593.53568848 132.21780762 593.82137695 132.81061523 594.11572266 133.42138672 C600.61226939 148.34403449 600.00317662 165.28054009 600.00390625 181.1953125 C600.01570615 183.46354004 600.02907665 185.73175989 600.04393005 187.99996948 C600.0798131 193.9186954 600.10023341 199.83735306 600.11547852 205.75616455 C600.14048896 215.26189593 600.18006187 224.76747685 600.23737907 234.27306747 C600.25363865 237.57841338 600.25747742 240.88361451 600.26039124 244.18899536 C600.27016726 246.21600596 600.28043049 248.24301429 600.29125977 250.27001953 C600.28743034 251.63689659 600.28743034 251.63689659 600.28352356 253.03138733 C600.33571866 259.54210974 600.52692759 265.05071691 605.13671875 270.03125 C606.16868205 270.94409582 607.20672808 271.85010031 608.25 272.75 C616.60690751 280.48035874 621.84079117 290.64865047 622.80078125 302.08984375 C623.18078326 317.9499278 617.62665607 332.55417893 607.25 344.5625 C605.71464537 346.15168176 604.15253231 347.71552623 602.5625 349.25 C601.85996094 349.93578125 601.15742187 350.6215625 600.43359375 351.328125 C590.29940323 360.28146201 575.80721533 366.73279833 562.5625 369.25 C561.428125 369.476875 560.29375 369.70375 559.125 369.9375 C541.24990073 371.50549116 525.00535054 367.98221901 510.0625 357.9375 C504.84428421 354.69391154 500.95655367 352.96476429 494.76953125 353.39453125 C490.00563043 354.66529164 486.10961973 357.04247438 481.92895508 359.60717773 C476.7808896 362.72612338 471.66130676 364.8991812 465.9375 366.75 C465.19161621 366.99250488 464.44573242 367.23500977 463.67724609 367.48486328 C444.31448779 373.52063582 424.83502921 370.56292233 407.08959961 361.38476562 C394.60196327 354.61666928 386.68899535 345.75580648 379.7578125 333.52929688 C377.70337782 329.9433071 375.65000676 327.00993832 372.5625 324.25 C366.58759685 326.59728338 363.97357127 332.03885247 361.13671875 337.484375 C360.8280336 338.07536484 360.51934845 338.66635468 360.2013092 339.2752533 C359.21037907 341.17989518 358.2292095 343.08930863 357.25 345 C356.91512573 345.65006012 356.58025146 346.30012024 356.23522949 346.96987915 C342.01902158 373.71927691 342.01902158 373.71927691 338.5625 403.25 C339.53587194 406.32499469 339.53587194 406.32499469 341.5625 408.25 C344.69435156 408.71010507 346.09351536 408.57828925 348.7109375 406.74609375 C349.44570312 406.06675781 350.18046875 405.38742187 350.9375 404.6875 C355.1927764 401.08589558 359.40597599 398.61225915 364.4375 396.3125 C365.07993652 396.01851318 365.72237305 395.72452637 366.38427734 395.42163086 C375.36069787 391.44062964 385.4518974 390.63902295 395 393.15625 C406.69797091 397.81156495 413.49199796 403.96416721 418.5625 415.53125 C424.24983344 430.18707079 422.71476445 446.94346534 416.71679688 461.27001953 C406.27536911 484.85190655 390.20714406 497.82427553 366.5625 507.25 C334.65317282 518.95863107 294.6033266 519.46934426 263.2734375 505.39453125 C259.28214746 503.49998156 255.4093231 501.42068453 251.5625 499.25 C250.51964844 498.67121094 249.47679687 498.09242188 248.40234375 497.49609375 C233.62635672 488.73618947 225.49224195 473.90024264 220.125 458 C219.89022949 457.30463135 219.65545898 456.6092627 219.41357422 455.89282227 C216.23400812 445.79046291 215.19196461 435.61582113 215.25 425.0625 C215.25563965 423.97316162 215.2612793 422.88382324 215.26708984 421.76147461 C215.76935978 388.06711856 231.65968007 359.20862482 250.39013672 332.10693359 C254.61587175 325.92708115 256.62637032 320.8040966 255.5625 313.25 C252.70263451 303.56921306 248.52407297 294.52940364 244.0625 285.5 C243.44865196 284.24775657 242.8352162 282.99531096 242.22216797 281.74267578 C240.96484191 279.17741693 239.70241021 276.61475519 238.43652344 274.05371094 C236.61790452 270.37061372 234.82797241 266.6741799 233.0390625 262.9765625 C231.92275487 260.69227814 230.80560424 258.4084055 229.6875 256.125 C229.18927734 255.09020508 228.69105469 254.05541016 228.17773438 252.98925781 C224.30198934 245.15351242 219.78513451 237.47263451 213.5625 231.25 C211.03457337 231.02444919 208.65194424 230.92561409 206.125 230.9375 C205.44373047 230.92138672 204.76246094 230.90527344 204.06054688 230.88867188 C200.11559428 230.88479862 200.11559428 230.88479862 196.65234375 232.58203125 C193.40775225 237.54776807 194.37824037 243.75065596 194.375 249.4375 C194.35663086 251.10522461 194.35663086 251.10522461 194.33789062 252.80664062 C194.15970942 263.41784989 194.15970942 263.41784989 198.515625 272.796875 C199.27359375 273.52390625 200.0315625 274.2509375 200.8125 275 C210.21605331 284.82754605 214.06945079 296.2774603 213.80078125 309.7109375 C212.79733832 324.61453254 204.40261926 340.71018203 193.72265625 351.02734375 C176.9503826 365.2242203 154.18553083 372.58826014 132.38354492 370.90380859 C116.14775462 369.35080286 98.37267931 362.5313288 87.50390625 349.84765625 C85.80344035 347.68187172 84.1726278 345.48309391 82.5625 343.25 C81.46335061 341.94226196 81.46335061 341.94226196 78.75 341.94140625 C74.80493079 342.3233431 74.08100066 343.21709095 71.5625 346.1875 C58.76642264 359.86680829 38.9860724 368.77081126 20.3125 369.5 C15.2860063 369.4695364 10.49442961 368.62748471 5.5625 367.75 C-4.73069256 365.950315 -13.06017716 366.06941503 -23.34204102 368.10083008 C-44.55992897 372.25275157 -61.72893602 368.36780693 -80.46484375 357.8984375 C-81.44582031 357.35445312 -82.42679688 356.81046875 -83.4375 356.25 C-84.36691406 355.66476562 -85.29632812 355.07953125 -86.25390625 354.4765625 C-91.47485254 352.46505681 -95.80916852 353.12482973 -100.91601562 355.31103516 C-103.54866399 356.66231945 -106.11848772 358.09401974 -108.6875 359.5625 C-127.57902932 369.92071042 -147.55707055 373.68835573 -168.56640625 367.60546875 C-172.60459698 366.29257445 -176.28823967 364.4247555 -180.0625 362.5 C-187.26950559 358.91433633 -193.45608443 357.70381668 -201.4375 359.25 C-205.66176532 360.6708704 -209.65420175 362.56422149 -213.6640625 364.49609375 C-230.05463544 372.35283438 -248.60658505 371.75785376 -265.6015625 366.21875 C-271.20104046 364.03214647 -275.9519045 361.28886229 -280.9375 357.9375 C-286.15571579 354.69391154 -290.04344633 352.96476429 -296.23046875 353.39453125 C-300.99436957 354.66529164 -304.89038027 357.04247438 -309.07104492 359.60717773 C-314.2191104 362.72612338 -319.33869324 364.8991812 -325.0625 366.75 C-326.18132568 367.11375732 -326.18132568 367.11375732 -327.32275391 367.48486328 C-346.68551221 373.52063582 -366.16497079 370.56292233 -383.91040039 361.38476562 C-389.19915265 358.51834768 -394.02514532 355.36758359 -398.4375 351.25 C-399.31728516 350.43208984 -399.31728516 350.43208984 -400.21484375 349.59765625 C-419.25346805 329.86828822 -425.08856216 300.13773691 -427.44995117 273.96020508 C-427.55283447 272.85572021 -427.65571777 271.75123535 -427.76171875 270.61328125 C-427.84510498 269.62626221 -427.92849121 268.63924316 -428.0144043 267.62231445 C-428.23627613 265.06990993 -428.23627613 265.06990993 -430.4375 263.25 C-432.71709065 263.19053445 -432.71709065 263.19053445 -435.25 263.5625 C-436.10207031 263.66175781 -436.95414063 263.76101563 -437.83203125 263.86328125 C-440.3892283 264.19975801 -440.3892283 264.19975801 -442.66015625 264.8046875 C-447.61180248 265.59862234 -452.66625559 265.16863996 -457.6640625 264.94726562 C-458.9015625 264.92116211 -458.9015625 264.92116211 -460.1640625 264.89453125 C-460.91252441 264.86721924 -461.66098633 264.83990723 -462.43212891 264.81176758 C-464.57000827 265.10158568 -464.57000827 265.10158568 -466.16772461 266.84985352 C-467.83477247 270.00092975 -467.90145507 272.44818515 -468.02734375 276.0078125 C-468.08692109 277.36045061 -468.14691419 278.71307047 -468.20727539 280.06567383 C-468.23387238 280.76963287 -468.26046936 281.47359192 -468.28787231 282.19888306 C-469.19876774 304.94957308 -472.09263763 329.31923463 -489.1484375 346.2578125 C-502.09263566 357.52324093 -520.13427015 366.91898232 -537.4375 368.25 C-538.736875 368.353125 -540.03625 368.45625 -541.375 368.5625 C-549.45038462 368.49288462 -557.984101 365.83567995 -565.53125 363.1484375 C-575.36178056 360.1094294 -584.0288065 362.43315081 -593.24804688 365.96142578 C-611.09933006 372.77951142 -630.03173487 371.41240541 -647.4765625 363.7890625 C-650.80526766 362.05883845 -653.82494829 360.02978535 -656.9375 357.9375 C-662.13201764 354.70864206 -666.01857721 352.96776325 -672.1796875 353.38671875 C-681.12184681 355.75628375 -689.41579273 361.35122472 -696.4375 367.25 C-695.74846894 373.53877557 -691.81640931 376.07414784 -687.13427734 379.9140625 C-685.25962278 381.39004952 -683.35051409 382.80870262 -681.42578125 384.21875 C-680.72654541 384.73171631 -680.02730957 385.24468262 -679.30688477 385.77319336 C-677.92964377 386.77348186 -676.5437681 387.7620257 -675.14819336 388.73657227 C-663.69859652 396.98395944 -656.98885326 410.55773751 -654.4375 424.25 C-652.91406356 435.50650259 -658.1173742 447.23487717 -664.4375 456.25 C-672.84738055 464.45618102 -684.98382862 468.65869832 -696.4375 470.25 C-697.22511719 470.36085938 -698.01273438 470.47171875 -698.82421875 470.5859375 C-730.54669011 474.36607096 -762.62750564 466.20657591 -790.4375 451.25 C-791.36804199 450.75862549 -791.36804199 450.75862549 -792.31738281 450.25732422 C-800.79125189 445.76048254 -808.24907478 440.61508136 -815.4375 434.25 C-816.38753906 433.42113281 -817.33757812 432.59226562 -818.31640625 431.73828125 C-823.79180946 426.87373935 -828.75360085 421.86877108 -833.4375 416.25 C-834.80071953 414.6516876 -836.16889712 413.0576976 -837.53735352 411.46386719 C-839.09187506 409.65328631 -840.64356864 407.8403054 -842.1953125 406.02734375 C-845.96890176 401.62482294 -849.76974833 397.24612038 -853.57177734 392.86816406 C-857.2972974 388.57506253 -860.99679749 384.26054011 -864.6875 379.9375 C-868.86748062 375.04555587 -873.11196291 370.2222756 -877.4453125 365.46484375 C-879.22079989 363.49091954 -880.92278159 361.47423397 -882.625 359.4375 C-899.21881031 340.52207861 -930.57137904 312.62885762 -956.6875 310.75 C-961.53904601 310.8604417 -963.80902043 312.45985473 -967.2109375 315.80078125 C-971.06377634 320.03890397 -974.79983886 324.36899413 -978.484375 328.75390625 C-981.67901466 332.55396507 -984.9839723 336.24547754 -988.32421875 339.91796875 C-989.69408956 341.42963765 -991.05173684 342.9525104 -992.39453125 344.48828125 C-997.39504574 350.17720308 -1002.65464233 355.57308477 -1008 360.9375 C-1008.70833984 361.65043213 -1009.41667969 362.36336426 -1010.14648438 363.09790039 C-1014.74806821 367.68615711 -1019.50818668 372.01812726 -1024.4375 376.25 C-1025.47096192 377.16173014 -1026.50358089 378.07441712 -1027.53515625 378.98828125 C-1048.13275657 396.87210024 -1073.26489736 411.96868884 -1101.4375 411.25 C-1114.39586916 410.0699746 -1128.61943254 406.1600381 -1138.4375 397.25 C-1148.45868637 384.96139368 -1152.5939114 369.87807412 -1151.4375 354.25 C-1148.18461305 334.45833844 -1138.76064567 320.27244416 -1122.5625 308.5625 C-1117.55400689 305.00288873 -1112.48401897 301.59649162 -1107.25 298.375 C-1100.54068761 294.18205743 -1100.54068761 294.18205743 -1095.4375 288.25 C-1094.8616664 281.57033019 -1098.13049637 276.18593276 -1101.0625 270.30078125 C-1105.04835293 261.45717006 -1103.63932811 253.49544702 -1100.70703125 244.57421875 C-1097.90301824 237.23201854 -1094.54268827 230.36132041 -1088.4375 225.25 C-1087.87160156 224.73308594 -1087.30570313 224.21617187 -1086.72265625 223.68359375 C-1069.23613922 208.68076628 -1043.59172544 203.09688567 -1021.17578125 201.87109375 C-1020.10908203 201.80688232 -1019.04238281 201.7426709 -1017.94335938 201.67651367 C-1015.8666883 201.5617252 -1013.78816076 201.47567603 -1011.70898438 201.4230957 C-1004.16638983 201.01468624 -1000.46774291 198.79959367 -995.4375 193.25 C-994.69935059 192.49227295 -994.69935059 192.49227295 -993.94628906 191.71923828 C-988.56631463 185.88198454 -984.37067656 178.97721116 -980 172.375 C-979.56130585 171.71449646 -979.12261169 171.05399292 -978.67062378 170.37347412 C-954.79823101 134.38338185 -934.48565707 96.61230535 -918.81298828 56.3527832 C-911.49370046 37.6904159 -905.01512769 22.92542268 -886.29638672 14.05078125 C-877.03828691 10.06252707 -866.17750031 9.61383346 -856.625 12.875 C-841.9306189 19.10699198 -834.74080496 27.38058504 -828.41702271 41.80804443 C-826.86446459 45.67858047 -825.81505864 49.61902699 -824.8046875 53.66015625 C-824.55903046 54.62204361 -824.31337341 55.58393097 -824.06027222 56.57496643 C-819.62030112 74.21117031 -815.64430309 91.96599338 -811.5625 109.6875 C-804.65751942 139.74807179 -804.65751942 139.74807179 -797.44903183 169.73686409 C-797.10619323 171.13027688 -796.76560331 172.52424511 -796.4274025 173.91879082 C-795.96775251 175.8096856 -795.49760721 177.6980201 -795.02685547 179.58618164 C-794.76661591 180.63906876 -794.50637634 181.69195587 -794.23825073 182.77674866 C-793.59866828 185.39211282 -793.59866828 185.39211282 -791.4375 187.25 C-789.40789766 187.23570933 -789.40789766 187.23570933 -787.4375 186.25 C-785.98632468 184.49856961 -785.98632468 184.49856961 -784.8125 182.1875 C-784.296875 181.28386719 -783.78125 180.38023437 -783.25 179.44921875 C-782.651875 178.39347656 -782.05375 177.33773437 -781.4375 176.25 C-760.83390157 140.81371844 -728.96636587 118.81184241 -689.4375 108.25 C-682.49808496 106.58361974 -675.50461608 105.24278444 -668.4375 104.25 C-667.72907959 104.1483252 -667.02065918 104.04665039 -666.29077148 103.94189453 C-658.17978904 102.95688292 -650.00302763 103.02827097 -641.84448242 103.00976562 C-639.27294224 103.00008635 -636.70221215 102.96899298 -634.13085938 102.9375 C-617.3322094 102.82964788 -601.74768005 104.97082211 -587.43432617 114.51098633 C-581.68644732 118.51719451 -581.68644732 118.51719451 -575 119.75 C-570.22321929 118.66912261 -566.10694185 115.93134511 -561.96142578 113.41381836 C-547.44848082 104.69158925 -531.16087753 102.13580514 -514.53515625 104.8984375 C-508.40309478 106.51250093 -503.28129237 108.80555138 -497.8125 112 C-491.47477636 115.53626609 -486.60544288 116.82712464 -479.4375 115.25 C-475.57124001 113.71015479 -471.90094377 111.9548063 -468.1953125 110.0703125 C-451.59661417 101.74093985 -430.61532379 100.43241597 -412.9375 105.91796875 C-397.09966157 111.94553896 -387.32971585 119.77113279 -377.4375 133.25 C-376.30974213 134.58323439 -376.30974213 134.58323439 -373.390625 134.62109375 C-368.2489682 134.13842834 -365.39511551 132.14728587 -361.1875 129.3125 C-332.04995849 110.68437077 -300.18793853 103.08766402 -265.84448242 103.00976562 C-263.27294224 103.00008635 -260.70221215 102.96899298 -258.13085938 102.9375 C-239.00452252 102.81447033 -220.90863312 105.95990748 -205.796875 118.625 C-198.98086092 125.5127616 -195.44437157 136.56470929 -192.75 145.6875 C-191.86143547 149.23606245 -191.86143547 149.23606245 -189.71484375 150.30078125 C-186.00860636 150.21813788 -184.13777483 147.50963444 -181.6875 145 C-165.21723911 129.09510126 -144.08772174 117.52556296 -122.37573242 110.47949219 C-121.28675659 110.11839355 -121.28675659 110.11839355 -120.17578125 109.75 C-119.23279175 109.45609375 -119.23279175 109.45609375 -118.27075195 109.15625 C-115.72977805 107.90014464 -114.24055008 106.43485844 -112.4375 104.25 C-111.52670982 101.7213635 -111.52670982 101.7213635 -111.12890625 98.91796875 C-110.94223389 97.87962891 -110.75556152 96.84128906 -110.56323242 95.77148438 C-110.37736572 94.67126953 -110.19149902 93.57105469 -110 92.4375 C-105.02446908 65.63118206 -93.97918039 35.77734413 -70.5378418 19.61865234 C-48.76196013 5.49991882 -25.89316348 -0.15481712 0 0 Z " fill="#FFC000" transform="translate(1267.4375,834.75)"/>
<path d="M0 0 C7.42808851 6.2908424 12.63908415 16.38385831 14 26 C15.14492504 40.86525628 11.48085559 55.16131788 1.71875 66.6953125 C0.18900802 68.35915524 -1.36476055 70.00145762 -2.94921875 71.61328125 C-8.45962949 78.02634974 -8.44280123 83.83649146 -8.3984375 91.94140625 C-8.40274277 93.68030373 -8.40274277 93.68030373 -8.40713501 95.45433044 C-8.40917366 97.90616342 -8.40365776 100.35801273 -8.39111328 102.80981445 C-8.37515981 106.52528237 -8.39091681 110.23964547 -8.41015625 113.95507812 C-8.40817179 116.34635653 -8.40432395 118.73763426 -8.3984375 121.12890625 C-8.40451019 122.2241713 -8.41058289 123.31943634 -8.4168396 124.44789124 C-8.32336932 134.93283776 -6.09745027 144.72571341 -2.375 154.5 C2.52764748 167.45487455 1.6397619 179.37998791 -3.89404297 192.04638672 C-11.47240034 207.89617462 -21.43702775 216.68478852 -38 223 C-49.92039611 227.14550088 -61.9178915 227.03274228 -74.125 224.5 C-86.32822193 222.01337203 -96.14739023 222.90238848 -108.1875 225.5 C-126.69855861 229.47227098 -143.07128399 229.0007647 -161.17651367 222.99829102 C-174.1159161 218.7186747 -182.95801733 219.90915725 -195.765625 223.80859375 C-209.89644073 227.99066544 -224.70527816 226.54384765 -238 220.3125 C-249.4018978 215.40021992 -258.81476575 217.91864603 -269.8215332 222.2824707 C-284.25241809 227.96718946 -299.19503168 229.58605096 -314.5625 227 C-316.70679544 226.65691273 -318.85266748 226.32353491 -321 226 C-322.05058594 225.84015625 -323.10117187 225.6803125 -324.18359375 225.515625 C-333.48201829 224.77087486 -339.87731351 227.75963465 -347.92578125 232.17871094 C-361.04070372 239.19070025 -374.98979569 239.54057528 -389.5 239.4375 C-390.74425247 239.43592896 -390.74425247 239.43592896 -392.01364136 239.43432617 C-404.97216013 239.40068103 -417.13720683 238.03676667 -429.8359375 235.41015625 C-436.47925345 234.15104402 -442.69819449 234.44937022 -449.265625 235.90625 C-461.99332711 238.70203345 -474.26094363 239.44713363 -487.25 239.5 C-488.09204987 239.50999023 -488.93409973 239.51998047 -489.80166626 239.53027344 C-507.54923286 239.70302647 -525.22280504 237.60739242 -540 227 C-546.8747822 219.98772215 -551.99366927 209.17588006 -552.00244141 199.23266602 C-551.95265137 198.24967529 -551.90286133 197.26668457 -551.8515625 196.25390625 C-551.81675781 195.16916016 -551.78195312 194.08441406 -551.74609375 192.96679688 C-551.66546939 190.70021199 -551.56135017 188.43433916 -551.43359375 186.16992188 C-551.15900859 180.29861101 -551.15900859 180.29861101 -553.32788086 175.02783203 C-555.13075111 173.42319902 -556.91250278 172.20802822 -559 171 C-559.60102539 170.6275415 -560.20205078 170.25508301 -560.82128906 169.87133789 C-562.62986363 168.78693235 -564.46613162 167.76845342 -566.3125 166.75 C-584.77921794 156.02312671 -595.21897709 136.97991263 -600.85644531 116.83154297 C-608.04893702 89.69377059 -604.77707269 62.31596866 -591.2734375 37.875 C-577.46397084 15.17450686 -552.22569056 1.53720346 -527 -5 C-514.46888834 -7.7886767 -501.98505716 -8.48008193 -489.18383789 -8.39111328 C-486.4352069 -8.37498655 -483.68804104 -8.39109768 -480.93945312 -8.41015625 C-471.47371558 -8.41998699 -462.4013607 -7.91651346 -453.09996033 -6.08114624 C-442.20940132 -3.93502639 -431.50386926 -4.38156117 -420.65625 -6.49609375 C-411.73631081 -8.09475785 -403.01712724 -8.49353847 -393.96826172 -8.44604492 C-391.50013464 -8.43750047 -389.03430958 -8.46651989 -386.56640625 -8.49804688 C-369.40496948 -8.57529313 -350.13250081 -6.19436872 -336.9140625 5.91015625 C-330.73472752 13.54806522 -327.06774336 23.28619888 -326.71875 33.046875 C-326.68136719 33.97371094 -326.64398437 34.90054688 -326.60546875 35.85546875 C-326.53458767 37.80076062 -326.46428421 39.74607361 -326.39453125 41.69140625 C-326.35714844 42.61308594 -326.31976562 43.53476562 -326.28125 44.484375 C-326.25095703 45.32709961 -326.22066406 46.16982422 -326.18945312 47.03808594 C-326.209634 49.00232163 -326.209634 49.00232163 -325 50 C-318.94012024 50.45734942 -313.86401371 49.37563871 -308.02734375 47.75390625 C-301.99912523 46.25268538 -296.06939563 45.80680793 -289.875 45.8125 C-289.13362793 45.81185547 -288.39225586 45.81121094 -287.62841797 45.81054688 C-283.03931398 45.85399869 -278.66102664 46.23495244 -274.125 47 C-264.23309866 49.10177262 -264.23309866 49.10177262 -254.8203125 46.71484375 C-252.7202183 44.92118353 -250.86173526 43.03941124 -249 41 C-239.1552484 30.54250452 -225.9490513 20.99985203 -211.15234375 19.76171875 C-203.23980248 19.57904769 -197.17102224 20.66591192 -190 24 C-188.7934375 24.54333984 -188.7934375 24.54333984 -187.5625 25.09765625 C-179.55553621 29.08761287 -175.00634395 34.87684211 -170.875 42.6875 C-167.82703758 48.57373027 -167.82703758 48.57373027 -163 53 C-156.18536357 54.11715351 -150.50446082 52.05412514 -144.08569336 49.92919922 C-135.09306219 46.97263138 -126.24590483 45.80605615 -116.7890625 45.63671875 C-112.93561463 44.75701006 -110.51108848 42.9565481 -108 40 C-106.27148216 37.04631611 -104.95402681 33.96228432 -103.625 30.8125 C-100.26523259 23.32107871 -96.77272611 16.94801131 -91 11 C-90.44570313 10.39542969 -89.89140625 9.79085937 -89.3203125 9.16796875 C-67.60833275 -12.20626909 -25.21969641 -18.15310363 0 0 Z " fill="#FFC000" transform="translate(1092,685)"/>
</svg>
